<svg width="53" height="58" viewBox="0 0 53 58" fill="none" xmlns="http://www.w3.org/2000/svg">
<path d="M51.0092 15H1.99146C1.99086 15 1.99026 15 1.98966 15C1.71264 14.9999 1.48921 14.9842 1.31314 14.9606C1.48262 14.8178 1.71655 14.6499 2.02825 14.4625C2.0283 14.4625 2.02834 14.4625 2.02838 14.4624L23.0297 1.84499L23.0298 1.84492C23.9336 1.30173 25.1887 1 26.4994 1C27.8101 1 29.0652 1.30173 29.969 1.84492L29.9692 1.84501L50.9722 14.4624C50.9723 14.4625 50.9723 14.4625 50.9724 14.4625C51.2841 14.6499 51.5179 14.8178 51.6873 14.9605C51.5109 14.9842 51.287 15 51.0092 15Z" stroke="white" stroke-width="2"/>
<path d="M5.50218 18H47.4978C47.7772 18 48 18.2246 48 18.5C48 18.7754 47.7772 19 47.4978 19H5.50218C5.2228 19 5 18.7754 5 18.5C5 18.2246 5.2228 18 5.50218 18Z" stroke="white" stroke-width="2"/>
<path d="M12.5429 45.552V46.552H13.5429H13.6872C13.6882 46.552 13.6892 46.552 13.6917 46.5527C13.6944 46.5534 13.7012 46.5556 13.712 46.5616C13.7342 46.574 13.774 46.6032 13.8196 46.6631C13.9134 46.7862 14 46.9998 14 47.276C14 47.5522 13.9134 47.7658 13.8196 47.8889C13.774 47.9488 13.7342 47.978 13.712 47.9904C13.7012 47.9964 13.6944 47.9986 13.6917 47.9993C13.6892 48 13.6882 48 13.6872 48H8.31278C8.31149 48 8.31019 47.9999 8.30763 47.9992C8.30483 47.9985 8.29804 47.9963 8.28729 47.9903C8.26512 47.978 8.22551 47.9489 8.18005 47.8892C8.08657 47.7663 8 47.5527 8 47.276C8 46.9993 8.08657 46.7857 8.18005 46.6628C8.22551 46.6031 8.26512 46.574 8.28729 46.5617C8.29804 46.5557 8.30483 46.5535 8.30763 46.5528C8.31019 46.5521 8.31149 46.552 8.31278 46.552H8.45709H9.45709V45.552V24.448V23.448H8.45709H8.31278C8.31149 23.448 8.31019 23.4479 8.30763 23.4472C8.30483 23.4465 8.29804 23.4443 8.28729 23.4383C8.26512 23.426 8.22551 23.3969 8.18005 23.3372C8.08657 23.2143 8 23.0007 8 22.724C8 22.4473 8.08657 22.2337 8.18005 22.1108C8.22551 22.0511 8.26512 22.022 8.28729 22.0097C8.29804 22.0037 8.30483 22.0015 8.30763 22.0008C8.31019 22.0001 8.31149 22 8.31278 22H13.6872C13.6882 22 13.6892 22 13.6917 22.0007C13.6944 22.0014 13.7012 22.0036 13.712 22.0096C13.7342 22.022 13.774 22.0512 13.8196 22.1111C13.9134 22.2342 14 22.4479 14 22.724C14 23.0002 13.9134 23.2138 13.8196 23.3369C13.774 23.3968 13.7342 23.426 13.712 23.4384C13.7012 23.4444 13.6944 23.4466 13.6917 23.4473C13.6892 23.448 13.6882 23.448 13.6872 23.448H13.5429H12.5429V24.448V45.552Z" stroke="white" stroke-width="2"/>
<path d="M43.5443 45.552V46.552H44.5443H44.6872C44.6885 46.552 44.6898 46.5521 44.6924 46.5528C44.6952 46.5535 44.702 46.5557 44.7127 46.5617C44.7349 46.574 44.7745 46.6031 44.8199 46.6628C44.9134 46.7857 45 46.9993 45 47.276C45 47.5527 44.9134 47.7663 44.8199 47.8892C44.7745 47.9489 44.7349 47.978 44.7127 47.9903C44.702 47.9963 44.6952 47.9985 44.6924 47.9992C44.6898 47.9999 44.6885 48 44.6872 48H39.3128C39.3115 48 39.3102 47.9999 39.3076 47.9992C39.3048 47.9985 39.298 47.9963 39.2873 47.9903C39.2651 47.978 39.2255 47.9489 39.1801 47.8892C39.0866 47.7663 39 47.5527 39 47.276C39 46.9993 39.0866 46.7857 39.1801 46.6628C39.2255 46.6031 39.2651 46.574 39.2873 46.5617C39.298 46.5557 39.3048 46.5535 39.3076 46.5528C39.3102 46.5521 39.3115 46.552 39.3128 46.552H39.4571H40.4571V45.552V24.448V23.448H39.4571H39.3128C39.3115 23.448 39.3102 23.4479 39.3076 23.4472C39.3048 23.4465 39.298 23.4443 39.2873 23.4383C39.2651 23.426 39.2255 23.3969 39.1801 23.3372C39.0866 23.2143 39 23.0007 39 22.724C39 22.4473 39.0866 22.2337 39.1801 22.1108C39.2255 22.0511 39.2651 22.022 39.2873 22.0097C39.298 22.0037 39.3048 22.0015 39.3076 22.0008C39.3102 22.0001 39.3115 22 39.3128 22H44.6872C44.6885 22 44.6898 22.0001 44.6924 22.0008C44.6952 22.0015 44.702 22.0037 44.7127 22.0097C44.7349 22.022 44.7745 22.0511 44.8199 22.1108C44.9134 22.2337 45 22.4473 45 22.724C45 23.0007 44.9134 23.2143 44.8199 23.3372C44.7745 23.3969 44.7349 23.426 44.7127 23.4383C44.702 23.4443 44.6952 23.4465 44.6924 23.4472C44.6898 23.4479 44.6885 23.448 44.6872 23.448H44.5443H43.5443V24.448V45.552Z" stroke="white" stroke-width="2"/>
<path d="M28.5443 45.552V46.552H29.5443H29.6872C29.6885 46.552 29.6898 46.5521 29.6924 46.5528C29.6952 46.5535 29.702 46.5557 29.7127 46.5617C29.7349 46.574 29.7745 46.6031 29.8199 46.6628C29.9134 46.7857 30 46.9993 30 47.276C30 47.5527 29.9134 47.7663 29.8199 47.8892C29.7745 47.9489 29.7349 47.978 29.7127 47.9903C29.702 47.9963 29.6952 47.9985 29.6924 47.9992C29.6898 47.9999 29.6885 48 29.6872 48H24.3128C24.3115 48 24.3102 47.9999 24.3076 47.9992C24.3048 47.9985 24.298 47.9963 24.2873 47.9903C24.2651 47.978 24.2255 47.9489 24.1801 47.8892C24.0866 47.7663 24 47.5527 24 47.276C24 46.9993 24.0866 46.7857 24.1801 46.6628C24.2255 46.6031 24.2651 46.574 24.2873 46.5617C24.298 46.5557 24.3048 46.5535 24.3076 46.5528C24.3102 46.5521 24.3115 46.552 24.3128 46.552H24.4571H25.4571V45.552V24.448V23.448H24.4571H24.3128C24.3115 23.448 24.3102 23.4479 24.3076 23.4472C24.3048 23.4465 24.298 23.4443 24.2873 23.4383C24.2651 23.426 24.2255 23.3969 24.1801 23.3372C24.0866 23.2143 24 23.0007 24 22.724C24 22.4473 24.0866 22.2337 24.1801 22.1108C24.2255 22.0511 24.2651 22.022 24.2873 22.0097C24.298 22.0037 24.3048 22.0015 24.3076 22.0008C24.3102 22.0001 24.3115 22 24.3128 22H29.6872C29.6885 22 29.6898 22.0001 29.6924 22.0008C29.6952 22.0015 29.702 22.0037 29.7127 22.0097C29.7349 22.022 29.7745 22.0511 29.8199 22.1108C29.9134 22.2337 30 22.4473 30 22.724C30 23.0007 29.9134 23.2143 29.8199 23.3372C29.7745 23.3969 29.7349 23.426 29.7127 23.4383C29.702 23.4443 29.6952 23.4465 29.6924 23.4472C29.6898 23.4479 29.6885 23.448 29.6872 23.448H29.5443H28.5443V24.448V45.552Z" stroke="white" stroke-width="2"/>
<path d="M5.50218 53C5.2228 53 5 52.7754 5 52.5C5 52.2246 5.2228 52 5.50218 52H47.4978C47.7772 52 48 52.2246 48 52.5C48 52.7754 47.7772 53 47.4978 53H5.50218Z" stroke="white" stroke-width="2"/>
<path d="M51.5169 56.0018H51.5579C51.7973 56.023 52 56.2279 52 56.5C52 56.7875 51.7737 57 51.5169 57H1.48311C1.22707 57 1 56.7865 1 56.5C1 56.2151 1.2255 56.0018 1.48311 56.0018H51.5169Z" stroke="white" stroke-width="2"/>
</svg>
