<svg width="20" height="16" viewBox="0 0 20 16" fill="none" xmlns="http://www.w3.org/2000/svg">
<path d="M20 10.0736C20 10.5156 19.7659 10.9396 19.3491 11.2521C18.9324 11.5647 18.3671 11.7403 17.7778 11.7403H4.44444L0 15.0736V1.74028C0 1.29825 0.234126 0.874324 0.650874 0.561764C1.06762 0.249203 1.63285 0.0736084 2.22222 0.0736084H17.7778C18.3671 0.0736084 18.9324 0.249203 19.3491 0.561764C19.7659 0.874324 20 1.29825 20 1.74028V10.0736Z" fill="#FF4C24"/>
<path d="M3.23267 8.72814V3.07189H4.09204V5.52502H6.90454V3.07189H7.76392V8.72814H6.90454V6.25939H4.09204V8.72814H3.23267ZM13.4342 5.90002C13.4342 7.7047 12.3483 8.80627 10.8874 8.80627C9.41079 8.80627 8.33267 7.7047 8.33267 5.90002C8.33267 4.08752 9.41079 2.99377 10.8874 2.99377C12.3483 2.99377 13.4342 4.08752 13.4342 5.90002ZM12.5827 5.90002C12.5827 4.52502 11.8561 3.78283 10.8874 3.78283C9.91079 3.78283 9.18423 4.52502 9.18423 5.90002C9.18423 7.27502 9.91079 8.0172 10.8874 8.0172C11.8561 8.0172 12.5827 7.27502 12.5827 5.90002ZM13.4795 3.81408V3.07189H17.8624V3.81408H16.1045V8.72814H15.2452V3.81408H13.4795Z" fill="white"/>
</svg>
