<svg width="27" height="26" viewBox="0 0 27 26" fill="none" xmlns="http://www.w3.org/2000/svg">
<circle cx="13.559" cy="13" r="13" fill="#FFCC17"/>
<path d="M16.56 8.35345C16.7302 8.1795 16.9322 8.04152 17.1545 7.94737C17.3768 7.85323 17.615 7.80478 17.8556 7.80478C18.0962 7.80478 18.3345 7.85323 18.5568 7.94737C18.7791 8.04152 18.9811 8.1795 19.1512 8.35345C19.3214 8.5274 19.4563 8.73391 19.5484 8.96119C19.6405 9.18847 19.6879 9.43206 19.6879 9.67806C19.6879 9.92407 19.6405 10.1677 19.5484 10.3949C19.4563 10.6222 19.3214 10.8287 19.1512 11.0027L13.0879 17.2018L8.61194 19.0972L10.4968 14.5525L16.56 8.35345Z" fill="#121212" stroke="#090A0A" stroke-linecap="round" stroke-linejoin="round"/>
</svg>
