<svg width="16" height="16" viewBox="0 0 16 16" fill="none" xmlns="http://www.w3.org/2000/svg">
<path d="M13.4008 7.99998C13.4008 7.55207 13.3406 7.12024 13.2381 6.70447L14.8851 5.50336L13.5916 3.26182L11.7297 4.08934C11.1051 3.4908 10.3398 3.03887 9.48617 2.79182L9.27125 0.767212H6.68425L6.46933 2.79182C5.6157 3.03887 4.85045 3.48879 4.22579 4.08934L2.36387 3.26182L1.06836 5.50537L2.71537 6.70648C2.61293 7.12224 2.55267 7.55408 2.55267 8.00199C2.55267 8.44989 2.61293 8.88173 2.71537 9.2975L1.06836 10.4946L2.36186 12.7361L4.22378 11.9106C4.84844 12.5092 5.61369 12.9611 6.46732 13.2081L6.68224 15.2327H9.26924L9.48416 13.2081C10.3378 12.9611 11.103 12.5112 11.7277 11.9106L13.5896 12.7361L14.8831 10.4946L13.2361 9.29348C13.3386 8.87771 13.3988 8.44587 13.3988 7.99797L13.4008 7.99998ZM7.97775 10.5528C6.56775 10.5528 5.42489 9.40998 5.42489 7.99998C5.42489 6.58998 6.56775 5.44712 7.97775 5.44712C9.38775 5.44712 10.5306 6.58998 10.5306 7.99998C10.5306 9.40998 9.38775 10.5528 7.97775 10.5528Z" fill="#465259"/>
</svg>
