<svg width="17" height="16" viewBox="0 0 17 16" fill="none" xmlns="http://www.w3.org/2000/svg">
<path d="M3.83335 2C3.25872 2 2.70762 2.22827 2.30129 2.6346C1.89496 3.04093 1.66669 3.59203 1.66669 4.16667V9.83333C1.66669 10.408 1.89496 10.9591 2.30129 11.3654C2.70762 11.7717 3.25872 12 3.83335 12H4.33335V13.8333C4.33335 14.52 5.11735 14.912 5.66669 14.5L9.00002 12H12.8334C13.1179 12 13.3996 11.944 13.6625 11.8351C13.9254 11.7262 14.1642 11.5666 14.3654 11.3654C14.5666 11.1642 14.7262 10.9254 14.8351 10.6625C14.944 10.3996 15 10.1179 15 9.83333V4.16667C15 3.88214 14.944 3.60039 14.8351 3.33752C14.7262 3.07465 14.5666 2.8358 14.3654 2.6346C14.1642 2.43341 13.9254 2.27381 13.6625 2.16493C13.3996 2.05604 13.1179 2 12.8334 2H3.83335Z" fill="#465259"/>
</svg>
