<svg width="17" height="16" viewBox="0 0 17 16" fill="none" xmlns="http://www.w3.org/2000/svg">
<path d="M14.08 3.1877C14.0253 3.18206 13.9702 3.18206 13.9156 3.1877H2.68703C2.61506 3.1888 2.54357 3.1996 2.47449 3.21978L8.26922 8.99045L14.08 3.1877Z" fill="#465259"/>
<path d="M14.6735 3.74512L8.8347 9.5599C8.68443 9.70928 8.48115 9.79313 8.26926 9.79313C8.05737 9.79313 7.8541 9.70928 7.70382 9.5599L1.91711 3.78923C1.89932 3.85461 1.88989 3.92199 1.88904 3.98974V12.0101C1.88904 12.2228 1.97354 12.4268 2.12395 12.5773C2.27436 12.7277 2.47836 12.8122 2.69108 12.8122H13.9196C14.1323 12.8122 14.3363 12.7277 14.4868 12.5773C14.6372 12.4268 14.7217 12.2228 14.7217 12.0101V3.98974C14.7185 3.90619 14.7022 3.82365 14.6735 3.74512ZM3.24047 12.0101H2.68306V11.4367L5.59847 8.54532L6.16391 9.11076L3.24047 12.0101ZM13.9116 12.0101H13.3502L10.4267 9.11076L10.9922 8.54532L13.9076 11.4367L13.9116 12.0101Z" fill="#465259"/>
</svg>
