<svg width="28" height="29" viewBox="0 0 28 29" fill="none" xmlns="http://www.w3.org/2000/svg">
<rect y="0.0734863" width="28" height="28" rx="14" fill="#EEF0F4"/>
<path d="M12.6667 18.7619H15.3333C15.3333 19.4429 14.7333 20 14 20C13.2667 20 12.6667 19.4429 12.6667 18.7619ZM20 17.5238V18.1429H8V17.5238L9.33333 16.2857V12.5714C9.33333 10.6524 10.6667 8.98095 12.6667 8.42381V8.2381C12.6667 7.55714 13.2667 7 14 7C14.7333 7 15.3333 7.55714 15.3333 8.2381V8.42381C17.3333 8.98095 18.6667 10.6524 18.6667 12.5714V16.2857L20 17.5238ZM17.3333 12.5714C17.3333 10.8381 15.8667 9.47619 14 9.47619C12.1333 9.47619 10.6667 10.8381 10.6667 12.5714V16.9048H17.3333V12.5714Z" fill="#575757"/>
</svg>
